#!OML:ASF I:\Actors\actors\Patient Classification 2\Patient 1\Session 1\actor1.ASF
:FULLY-SPECIFIED
:DEGREES
217
root -0.66886 18.7342 6.09016 4.03144 0.887504 -4.55596
lowerback 7.54142 2.21533 4.93456
upperback -3.03167 3.46135 -0.376237
thorax -7.11466 1.46059 -3.62761
lowerneck -8.94979 -8.5102 -7.07018
upperneck 4.04951 -11.1231 8.25116
head 3.51515 -5.30541 2.93705
rclavicle 5.85172e-015 1.11319e-014
rhumerus 15.3119 -14.8403 -31.7657
rradius 91.6888
rwrist 9.00652
rhand -38.6648 -34.1311
rfingers 7.12502
rthumb -11.6804 -63.7855
lclavicle 5.85172e-015 1.11319e-014
lhumerus -46.8672 -3.31654 86.4771
lradius 46.6282
lwrist -2.20821
lhand -4.16195 -25.8846
lfingers 7.12502
lthumb 21.5984 2.93088
rfemur 0 0 0
rtibia 0
rfoot 0 0
rtoes 0
lfemur -8.14159 -6.78207 -9.17995
ltibia 23.7987
lfoot -23.0659 12.3473
ltoes -55.9792
218
root -0.667936 18.7356 6.09057 4.0577 0.844591 -4.49617
lowerback 7.51777 2.21476 5.00563
upperback -3.05547 3.46562 -0.404203
thorax -7.12072 1.4581 -3.6969
lowerneck -8.88307 -8.48241 -6.9814
upperneck 4.09264 -11.0919 8.11308
head 3.50173 -5.29543 2.88674
rclavicle 2.8948e-015 1.59028e-014
rhumerus 15.5147 -15.3412 -31.9968
rradius 91.7618
rwrist 8.60402
rhand -38.9115 -34.8212
rfingers 7.12502
rthumb -11.9183 -64.462
lclavicle 2.8948e-015 1.59028e-014
lhumerus -46.8676 -3.15809 86.3388
lradius 46.3691
lwrist -2.45868
lhand -4.19581 -25.8567
lfingers 7.12502
lthumb 21.5659 2.96254
rfemur 0 0 0
rtibia 0
rfoot 0 0
rtoes 0
lfemur -8.13922 -6.69809 -9.2446
ltibia 23.767
lfoot -23.0451 12.2984
ltoes -55.9636
219
root -0.66748 18.7359 6.09431 4.08501 0.84614 -4.43164
lowerback 7.46306 2.21221 5.08839
upperback -3.06377 3.46509 -0.447385
thorax -7.09114 1.45388 -3.78593
lowerneck -8.90792 -8.49688 -7.05128
upperneck 4.21015 -11.1138 8.17019
head 3.55029 -5.30305 2.9092
rclavicle -1.99282e-014 -1.23246e-014
rhumerus 15.3466 -15.4331 -32.0166
rradius 92.2814
rwrist 8.95018
rhand -39.136 -34.934
rfingers 7.12502
rthumb -12.1347 -64.5621
lclavicle -1.99282e-014 -1.23246e-014
lhumerus -46.7913 -2.98199 86.1887
lradius 46.0799
lwrist -2.69802
lhand -4.1407 -25.7586
lfingers 7.12502
lthumb 21.6188 3.05452
rfemur 0 0 0
rtibia 0
rfoot 0 0
rtoes 0
lfemur -8.14358 -6.68041 -9.31109
ltibia 23.7396
lfoot -23.0553 12.2266
ltoes -55.8478
220
root -0.669351 18.7358 6.09934 4.11719 0.874625 -4.39633
lowerback 7.40592 2.20296 5.15917
upperback -3.08268 3.45541 -0.477291
thorax -7.07393 1.44544 -3.85339
lowerneck -8.95683 -8.51553 -7.20509
upperneck 4.37157 -11.1381 8.29125
head 3.62483 -5.30946 2.96145
rclavicle -8.05078e-015 -7.55382e-015
rhumerus 14.9785 -15.2145 -31.9108
rradius 92.9914
rwrist 9.35873
rhand -39.3347 -35.0113
rfingers 7.12502
rthumb -12.3263 -64.6279
lclavicle -8.05078e-015 -7.55382e-015
lhumerus -46.7046 -2.77429 86.0226
lradius 45.8127
lwrist -2.90443
lhand -3.99747 -25.6805
lfingers 7.12502
lthumb 21.7564 3.1168
rfemur 0 0 0
rtibia 0
rfoot 0 0
rtoes 0
lfemur -8.14993 -6.69294 -9.34619
ltibia 23.7191
lfoot -23.0481 12.2461
ltoes -55.9166
221
root -0.674278 18.7354 6.10342 4.15801 0.901824 -4.39388
lowerback 7.31209 2.18121 5.1631
upperback -3.09594 3.42221 -0.469288
thorax -7.03761 1.43033 -3.8384
lowerneck -8.96873 -8.49995 -7.2245
upperneck 4.45123 -11.1157 8.24829
head 3.64758 -5.2993 2.95134
rclavicle -1.53064e-014 -1.15295e-014
rhumerus 14.6297 -14.7427 -31.7236
rradius 93.652
rwrist 9.54706
rhand -39.3208 -34.8245
rfingers 7.12502
rthumb -12.313 -64.442
lclavicle -1.53064e-014 -1.15295e-014
lhumerus -46.6876 -2.57991 85.903
lradius 45.6709
lwrist -2.9922
lhand -3.92257 -25.6965
lfingers 7.12502
lthumb 21.8283 3.09246
rfemur 0 0 0
rtibia 0
rfoot 0 0
rtoes 0
lfemur -8.18344 -6.62935 -9.32533
ltibia 23.7101
lfoot -23.0009 12.2283
ltoes -56.0483
222
root -0.679081 18.7349 6.10689 4.17721 0.933775 -4.42073
lowerback 7.21479 2.14475 5.16518
upperback -3.09658 3.37032 -0.433902
thorax -6.98937 1.40743 -3.79076
lowerneck -8.95498 -8.46433 -7.1043
upperneck 4.46543 -11.0659 8.03435
head 3.62616 -5.28187 2.87351
rclavicle 8.83349e-015 -1.39149e-014
rhumerus 14.3504 -14.127 -31.4839
rradius 94.1541
rwrist 9.23626
rhand -39.2066 -34.4595
rfingers 7.12502
rthumb -12.2029 -64.0836
lclavicle 8.83349e-015 -1.39149e-014
lhumerus -46.7465 -2.338 85.8291
lradius 45.6534
lwrist -3.06413
lhand -3.9394 -25.6786
lfingers 7.12502
lthumb 21.8121 3.1122
rfemur 0 0 0
rtibia 0
rfoot 0 0
rtoes 0
lfemur -8.21003 -6.63892 -9.27374
ltibia 23.7163
lfoot -23.0241 12.2194
ltoes -56.0975
223
root -0.682272 18.734 6.11152 4.18279 0.985951 -4.47939
lowerback 7.08984 2.08746 5.21312
upperback -3.09355 3.29414 -0.386921
thorax -6.92208 1.37151 -3.75231
lowerneck -8.93042 -8.42014 -7.01355
upperneck 4.52309 -11.0088 7.87231
head 3.62062 -5.25896 2.81582
rclavicle 1.21321e-014 -5.56597e-015
rhumerus 14.1206 -13.4643 -31.2989
rradius 94.4256
rwrist 8.79849
rhand -39.2194 -34.246
rfingers 7.12502
rthumb -12.2152 -63.8693
lclavicle 1.21321e-014 -5.56597e-015
lhumerus -46.8501 -2.09643 85.7935
lradius 45.6819
lwrist -3.12158
lhand -4.03154 -25.6275
lfingers 7.12502
lthumb 21.7237 3.17353
rfemur 0 0 0
rtibia 0
rfoot 0 0
rtoes 0
lfemur -8.21892 -6.67464 -9.20022
ltibia 23.732
lfoot -23.0392 12.2713
ltoes -56.1854
224
root -0.685565 18.7325 6.11556 4.18331 1.00852 -4.54059
lowerback 6.96523 2.03476 5.23315
upperback -3.07718 3.2211 -0.333612
thorax -6.84209 1.33921 -3.69184
lowerneck -8.95236 -8.37703 -6.98005
upperneck 4.60925 -10.9564 7.84313
head 3.64293 -5.23227 2.80369
rclavicle 8.31168e-015 1.23246e-014
rhumerus 13.9878 -12.9009 -31.2535
rradius 94.4781
rwrist 8.60853
rhand -39.2578 -34.118
rfingers 7.12502
rthumb -12.2522 -63.7391
lclavicle 8.31168e-015 1.23246e-014
lhumerus -46.9225 -1.94115 85.8098
lradius 45.679
lwrist -3.14652
lhand -4.17528 -25.6455
lfingers 7.12502
lthumb 21.5856 3.17143
rfemur 0 0 0
rtibia 0
rfoot 0 0
rtoes 0
lfemur -8.21573 -6.65027 -9.12058
ltibia 23.7487
lfoot -23.0209 12.2395
ltoes -56.1863
225
root -0.689413 18.7312 6.11745 4.14406 0.968102 -4.59274
lowerback 6.90918 2.00877 5.21642
upperback -3.04145 3.18336 -0.282802
thorax -6.77896 1.3255 -3.62066
lowerneck -9.02884 -8.35939 -6.94638
upperneck 4.70398 -10.9376 7.83949
head 3.68067 -5.21962 2.79411
rclavicle 3.48494e-015 -2.22639e-014
rhumerus 13.9227 -12.5013 -31.3584
rradius 94.4407
rwrist 8.55562
rhand -39.1423 -34.2886
rfingers 7.12502
rthumb -12.1409 -63.9163
lclavicle 3.48494e-015 -2.22639e-014
lhumerus -46.9603 -1.93301 85.9177
lradius 45.7842
lwrist -3.17371
lhand -4.16463 -25.1891
lfingers 7.12502
lthumb 21.5959 3.62674
rfemur 0 0 0
rtibia 0
rfoot 0 0
rtoes 0
lfemur -8.15168 -6.68854 -9.05715
ltibia 23.7526
lfoot -23.0943 12.2067
ltoes -56.0779
226
root -0.692918 18.7301 6.11886 4.07566 0.906142 -4.60074
lowerback 6.88494 2.00152 5.16926
upperback -3.00116 3.16729 -0.265364
thorax -6.72668 1.32264 -3.5716
lowerneck -9.11437 -8.36342 -6.87423
upperneck 4.84021 -10.9525 7.80874
head 3.73123 -5.22334 2.76668
rclavicle -4.91371e-015 1.63003e-014
rhumerus 13.8683 -12.2756 -31.6134
rradius 94.4165
rwrist 8.44313
rhand -38.916 -34.5711
rfingers 7.12502
rthumb -11.9227 -64.2116
lclavicle -4.91371e-015 1.63003e-014
lhumerus -46.9974 -2.14984 86.0958
lradius 45.9224
lwrist -3.06697
lhand -4.05354 -24.6672
lfingers 7.12502
lthumb 21.7025 4.13628
rfemur 0 0 0
rtibia 0
rfoot 0 0
rtoes 0
lfemur -8.04211 -6.7355 -9.05481
ltibia 23.7357
lfoot -23.1549 12.2889
ltoes -56.0813
227
root -0.696538 18.7286 6.11979 4.01527 0.828993 -4.55913
lowerback 6.88641 2.02662 5.08229
upperback -2.97985 3.19088 -0.278491
thorax -6.7058 1.33887 -3.53882
lowerneck -9.15641 -8.37055 -6.87544
upperneck 4.95993 -10.9728 7.87494
head 3.77999 -5.22804 2.78099
rclavicle -2.85877e-014 -3.97569e-016
rhumerus 13.818 -12.2419 -31.8996
rradius 94.4053
rwrist 8.32966
rhand -38.6971 -34.6441
rfingers 7.12502
rthumb -11.7116 -64.2967
lclavicle -2.85877e-014 -3.97569e-016
lhumerus -47.0131 -2.48622 86.2569
lradius 45.8568
lwrist -2.81733
lhand -4.04067 -25.1022
lfingers 7.12502
lthumb 21.7149 3.6999
rfemur 0 0 0
rtibia 0
rfoot 0 0
rtoes 0
lfemur -7.93918 -6.71725 -9.10723
ltibia 23.7038
lfoot -23.1559 12.3566
ltoes -56.1026
228
root -0.699332 18.7274 6.1201 3.96677 0.74065 -4.51329
lowerback 6.91454 2.07676 5.01665
upperback -2.96831 3.25147 -0.298909
thorax -6.70585 1.37127 -3.53156
lowerneck -9.19428 -8.38279 -6.96833
upperneck 5.03172 -10.9921 8.00949
head 3.82258 -5.23153 2.83091
rclavicle 3.57067e-014 -1.23246e-014
rhumerus 13.7979 -12.4166 -32.2118
rradius 94.3888
rwrist 8.34659
rhand -38.589 -34.4729
rfingers 7.12502
rthumb -11.6073 -64.1314
lclavicle 3.57067e-014 -1.23246e-014
lhumerus -46.9915 -2.80093 86.416
lradius 45.7999
lwrist -2.66453
lhand -3.99519 -25.5754
lfingers 7.12502
lthumb 21.7586 3.22164
rfemur 0 0 0
rtibia 0
rfoot 0 0
rtoes 0
lfemur -7.84127 -6.67828 -9.16872
ltibia 23.6623
lfoot -23.1376 12.4175
ltoes -56.1339
229
root -0.700909 18.7269 6.12138 3.92884 0.671593 -4.494
lowerback 6.92802 2.12793 5.01804
upperback -2.95762 3.31923 -0.318115
thorax -6.69454 1.40464 -3.56064
lowerneck -9.21801 -8.40918 -7.0339
upperneck 5.04266 -11.024 8.06767
head 3.83921 -5.24515 2.85448
rclavicle -2.87492e-014 -1.31198e-014
rhumerus 13.8098 -12.7363 -32.5765
rradius 94.3661
rwrist 8.44948
rhand -38.5344 -34.4087
rfingers 7.12502
rthumb -11.5547 -64.0702
lclavicle -2.87492e-014 -1.31198e-014
lhumerus -46.9585 -3.10755 86.6081
lradius 45.8728
lwrist -2.58182
lhand -3.87622 -25.5423
lfingers 7.12502
lthumb 21.8728 3.24146
rfemur 0 0 0
rtibia 0
rfoot 0 0
rtoes 0
lfemur -7.75501 -6.63117 -9.20277
ltibia 23.6162
lfoot -23.0876 12.4933
ltoes -56.2398
